<mxfile host="app.diagrams.net" agent="Mozilla/5.0 (Windows NT 10.0; Win64; x64) AppleWebKit/537.36 (KHTML, like Gecko) Chrome/128.0.0.0 Safari/537.36" version="24.7.12">
  <diagram name="Página-1" id="7Xa3T1qwcdtAbTyVRTZ2">
    <mxGraphModel grid="1" page="1" gridSize="10" guides="1" tooltips="1" connect="1" arrows="1" fold="1" pageScale="1" pageWidth="827" pageHeight="1169" math="0" shadow="0">
      <root>
        <mxCell id="0" />
        <mxCell id="1" parent="0" />
        <mxCell id="psA04g1qJ69ryogM4SbP-30" style="edgeStyle=orthogonalEdgeStyle;rounded=0;orthogonalLoop=1;jettySize=auto;html=1;exitX=0.5;exitY=1;exitDx=0;exitDy=0;entryX=0.5;entryY=0;entryDx=0;entryDy=0;" edge="1" parent="1" source="psA04g1qJ69ryogM4SbP-1" target="psA04g1qJ69ryogM4SbP-12">
          <mxGeometry relative="1" as="geometry" />
        </mxCell>
        <mxCell id="psA04g1qJ69ryogM4SbP-1" value="Confirmación de reserva." style="rounded=0;whiteSpace=wrap;html=1;" vertex="1" parent="1">
          <mxGeometry x="210" y="945" width="120" height="60" as="geometry" />
        </mxCell>
        <mxCell id="psA04g1qJ69ryogM4SbP-22" style="edgeStyle=orthogonalEdgeStyle;rounded=0;orthogonalLoop=1;jettySize=auto;html=1;exitX=0.5;exitY=1;exitDx=0;exitDy=0;entryX=0.5;entryY=0;entryDx=0;entryDy=0;" edge="1" parent="1" source="psA04g1qJ69ryogM4SbP-2" target="psA04g1qJ69ryogM4SbP-11">
          <mxGeometry relative="1" as="geometry" />
        </mxCell>
        <mxCell id="psA04g1qJ69ryogM4SbP-2" value="Selecciona la zona (Chacarita, Villa Crespo o Villa Devoto)." style="rounded=0;whiteSpace=wrap;html=1;" vertex="1" parent="1">
          <mxGeometry x="210" y="335" width="120" height="60" as="geometry" />
        </mxCell>
        <mxCell id="psA04g1qJ69ryogM4SbP-24" style="edgeStyle=orthogonalEdgeStyle;rounded=0;orthogonalLoop=1;jettySize=auto;html=1;exitX=0.5;exitY=1;exitDx=0;exitDy=0;entryX=0.5;entryY=0;entryDx=0;entryDy=0;" edge="1" parent="1" source="psA04g1qJ69ryogM4SbP-3" target="psA04g1qJ69ryogM4SbP-8">
          <mxGeometry relative="1" as="geometry" />
        </mxCell>
        <mxCell id="psA04g1qJ69ryogM4SbP-3" value="Selecciona la fecha y hora (de 10hs a 19hs)." style="rounded=0;whiteSpace=wrap;html=1;" vertex="1" parent="1">
          <mxGeometry x="210" y="515" width="120" height="60" as="geometry" />
        </mxCell>
        <mxCell id="psA04g1qJ69ryogM4SbP-28" style="edgeStyle=orthogonalEdgeStyle;rounded=0;orthogonalLoop=1;jettySize=auto;html=1;exitX=0.5;exitY=1;exitDx=0;exitDy=0;entryX=0.5;entryY=0;entryDx=0;entryDy=0;" edge="1" parent="1" source="psA04g1qJ69ryogM4SbP-4" target="psA04g1qJ69ryogM4SbP-1">
          <mxGeometry relative="1" as="geometry" />
        </mxCell>
        <mxCell id="psA04g1qJ69ryogM4SbP-29" style="edgeStyle=orthogonalEdgeStyle;rounded=0;orthogonalLoop=1;jettySize=auto;html=1;exitX=1;exitY=0.75;exitDx=0;exitDy=0;entryX=0.5;entryY=0;entryDx=0;entryDy=0;" edge="1" parent="1" source="psA04g1qJ69ryogM4SbP-4" target="psA04g1qJ69ryogM4SbP-9">
          <mxGeometry relative="1" as="geometry" />
        </mxCell>
        <mxCell id="psA04g1qJ69ryogM4SbP-4" value="Confirmación de pago." style="rounded=0;whiteSpace=wrap;html=1;" vertex="1" parent="1">
          <mxGeometry x="210" y="835" width="120" height="60" as="geometry" />
        </mxCell>
        <mxCell id="psA04g1qJ69ryogM4SbP-21" style="edgeStyle=orthogonalEdgeStyle;rounded=0;orthogonalLoop=1;jettySize=auto;html=1;exitX=0.5;exitY=1;exitDx=0;exitDy=0;entryX=0.5;entryY=0;entryDx=0;entryDy=0;" edge="1" parent="1" source="psA04g1qJ69ryogM4SbP-5" target="psA04g1qJ69ryogM4SbP-2">
          <mxGeometry relative="1" as="geometry" />
        </mxCell>
        <mxCell id="psA04g1qJ69ryogM4SbP-5" value="Elige el tipo de reserva." style="rounded=0;whiteSpace=wrap;html=1;" vertex="1" parent="1">
          <mxGeometry x="210" y="245" width="120" height="60" as="geometry" />
        </mxCell>
        <mxCell id="psA04g1qJ69ryogM4SbP-20" style="edgeStyle=orthogonalEdgeStyle;rounded=0;orthogonalLoop=1;jettySize=auto;html=1;exitX=0.5;exitY=1;exitDx=0;exitDy=0;entryX=0.5;entryY=0;entryDx=0;entryDy=0;" edge="1" parent="1" source="psA04g1qJ69ryogM4SbP-6" target="psA04g1qJ69ryogM4SbP-5">
          <mxGeometry relative="1" as="geometry" />
        </mxCell>
        <mxCell id="psA04g1qJ69ryogM4SbP-6" value="Cliente accede a la página web o local." style="rounded=0;whiteSpace=wrap;html=1;" vertex="1" parent="1">
          <mxGeometry x="210" y="145" width="120" height="60" as="geometry" />
        </mxCell>
        <mxCell id="psA04g1qJ69ryogM4SbP-7" value="Informa al cliente. Permite seleccionar otra fecha/hora" style="rounded=0;whiteSpace=wrap;html=1;" vertex="1" parent="1">
          <mxGeometry x="414" y="725" width="120" height="60" as="geometry" />
        </mxCell>
        <mxCell id="psA04g1qJ69ryogM4SbP-25" style="edgeStyle=orthogonalEdgeStyle;rounded=0;orthogonalLoop=1;jettySize=auto;html=1;exitX=0.5;exitY=1;exitDx=0;exitDy=0;entryX=0.5;entryY=0;entryDx=0;entryDy=0;" edge="1" parent="1" source="psA04g1qJ69ryogM4SbP-8" target="psA04g1qJ69ryogM4SbP-10">
          <mxGeometry relative="1" as="geometry" />
        </mxCell>
        <mxCell id="psA04g1qJ69ryogM4SbP-26" style="edgeStyle=orthogonalEdgeStyle;rounded=0;orthogonalLoop=1;jettySize=auto;html=1;exitX=1;exitY=0.75;exitDx=0;exitDy=0;entryX=0.5;entryY=0;entryDx=0;entryDy=0;" edge="1" parent="1" source="psA04g1qJ69ryogM4SbP-8" target="psA04g1qJ69ryogM4SbP-7">
          <mxGeometry relative="1" as="geometry" />
        </mxCell>
        <mxCell id="psA04g1qJ69ryogM4SbP-8" value="Confirma disponibilidad." style="rounded=0;whiteSpace=wrap;html=1;" vertex="1" parent="1">
          <mxGeometry x="210" y="595" width="120" height="60" as="geometry" />
        </mxCell>
        <mxCell id="psA04g1qJ69ryogM4SbP-9" value="Solicitar nuevo método de pago." style="rounded=0;whiteSpace=wrap;html=1;" vertex="1" parent="1">
          <mxGeometry x="414" y="945" width="120" height="60" as="geometry" />
        </mxCell>
        <mxCell id="psA04g1qJ69ryogM4SbP-27" style="edgeStyle=orthogonalEdgeStyle;rounded=0;orthogonalLoop=1;jettySize=auto;html=1;exitX=0.5;exitY=1;exitDx=0;exitDy=0;entryX=0.5;entryY=0;entryDx=0;entryDy=0;" edge="1" parent="1" source="psA04g1qJ69ryogM4SbP-10" target="psA04g1qJ69ryogM4SbP-4">
          <mxGeometry relative="1" as="geometry" />
        </mxCell>
        <mxCell id="psA04g1qJ69ryogM4SbP-10" value="Proceso de pago (efectivo)." style="rounded=0;whiteSpace=wrap;html=1;" vertex="1" parent="1">
          <mxGeometry x="210" y="725" width="120" height="60" as="geometry" />
        </mxCell>
        <mxCell id="psA04g1qJ69ryogM4SbP-23" style="edgeStyle=orthogonalEdgeStyle;rounded=0;orthogonalLoop=1;jettySize=auto;html=1;exitX=0.5;exitY=1;exitDx=0;exitDy=0;entryX=0.5;entryY=0;entryDx=0;entryDy=0;" edge="1" parent="1" source="psA04g1qJ69ryogM4SbP-11" target="psA04g1qJ69ryogM4SbP-3">
          <mxGeometry relative="1" as="geometry" />
        </mxCell>
        <mxCell id="psA04g1qJ69ryogM4SbP-11" value="Selecciona el pack (Explorador, Aventurero o Experto)." style="rounded=0;whiteSpace=wrap;html=1;" vertex="1" parent="1">
          <mxGeometry x="210" y="425" width="120" height="60" as="geometry" />
        </mxCell>
        <mxCell id="psA04g1qJ69ryogM4SbP-12" value="FIN." style="ellipse;whiteSpace=wrap;html=1;" vertex="1" parent="1">
          <mxGeometry x="210" y="1055" width="120" height="80" as="geometry" />
        </mxCell>
        <mxCell id="psA04g1qJ69ryogM4SbP-19" style="edgeStyle=orthogonalEdgeStyle;rounded=0;orthogonalLoop=1;jettySize=auto;html=1;exitX=0.5;exitY=1;exitDx=0;exitDy=0;entryX=0.5;entryY=0;entryDx=0;entryDy=0;" edge="1" parent="1" source="psA04g1qJ69ryogM4SbP-13" target="psA04g1qJ69ryogM4SbP-6">
          <mxGeometry relative="1" as="geometry" />
        </mxCell>
        <mxCell id="psA04g1qJ69ryogM4SbP-13" value="INICIO." style="ellipse;whiteSpace=wrap;html=1;" vertex="1" parent="1">
          <mxGeometry x="210" y="35" width="120" height="80" as="geometry" />
        </mxCell>
        <mxCell id="psA04g1qJ69ryogM4SbP-14" value="SI" style="text;html=1;align=center;verticalAlign=middle;resizable=0;points=[];autosize=1;strokeColor=none;fillColor=none;" vertex="1" parent="1">
          <mxGeometry x="270" y="695" width="30" height="30" as="geometry" />
        </mxCell>
        <mxCell id="psA04g1qJ69ryogM4SbP-15" value="NO" style="text;html=1;align=center;verticalAlign=middle;resizable=0;points=[];autosize=1;strokeColor=none;fillColor=none;" vertex="1" parent="1">
          <mxGeometry x="474" y="695" width="40" height="30" as="geometry" />
        </mxCell>
        <mxCell id="psA04g1qJ69ryogM4SbP-16" value="Pago aceptado." style="text;html=1;align=center;verticalAlign=middle;resizable=0;points=[];autosize=1;strokeColor=none;fillColor=none;" vertex="1" parent="1">
          <mxGeometry x="160" y="915" width="110" height="30" as="geometry" />
        </mxCell>
        <mxCell id="psA04g1qJ69ryogM4SbP-17" value="Pago rechazado." style="text;html=1;align=center;verticalAlign=middle;resizable=0;points=[];autosize=1;strokeColor=none;fillColor=none;" vertex="1" parent="1">
          <mxGeometry x="490" y="915" width="110" height="30" as="geometry" />
        </mxCell>
      </root>
    </mxGraphModel>
  </diagram>
</mxfile>
